#!OML:ASF F:\VICON\USERDATA\INSTALL\rory3\rory3.ASF
:FULLY-SPECIFIED
:DEGREES
102
root 1.0941133095780413 17.96186657334161 39.637700934076506 -3.4102100466826704 1.3890445750248968 -3.316292210319496
lfemur -5.7586988305997036 -2.6093780201808383 -18.852478060467607
ltibia 47.58308208150961
lfoot -16.489453943413665 -3.478698376501782
ltoes -16.19941260460017
rfemur -6.731927786941195 2.095059010498874 26.833341495569755
rtibia 24.215248043906215
rfoot 0.8374171033883737 -8.531163653428285
rtoes 5.615192058291488
lowerback 10.307991375089658 0.3982778299434935 2.125700814928054
upperback -0.2725113279973741 0.971676393339632 1.9241848577726337
thorax -6.087065345343827 0.5492327281126219 0.7027789912829546
lowerneck -16.25792456206281 -3.4815753267963214 -1.5057405901179188
upperneck 21.80779232533376 -4.804592366451365 0.8615593309861949
head 9.783309503474314 -2.23544566077419 -0.09193382392012553
lclavicle -2.7003079518089814e-15 -2.1517147062487703e-15
lhumerus -26.415161509488676 0.16613046799895548 80.90790794067607
lradius 28.498139022455526
lwrist 10.220685291205843
lhand -29.013807912140905 17.406251389665556
lfingers 7.125020000000001
lthumb -2.12381142209139 48.08707888323426
rclavicle -2.7003079517588244e-15 -2.1517147062140245e-15
rhumerus -33.524219020843255 -20.175301706524248 -76.95696590849893
rradius 25.84951441055642
rwrist 4.423466205319251
rhand -18.056545428431637 22.277956316049057
rfingers 7.125020000000001
rthumb 8.057741768016696 -6.549711734754756
103
root 1.1192919282177565 17.968730490704836 40.89457256103442 -3.315332025574279 1.6687267453811936 -2.9671980476993647
lfemur -5.305713323944399 -2.8259457075974757 -19.497207938438248
ltibia 46.68297597214622
lfoot -16.649000771677084 -3.0766171224962338
ltoes -17.03274214331421
rfemur -7.6478577625861535 1.5399177802055444 26.077270924724402
rtibia 24.93140386048455
rfoot 0.9348875820577547 -8.697565882929446
rtoes 4.858921932989265
lowerback 10.29485847187474 0.24324529308088133 1.7892501519216562
upperback -0.2841455553701223 0.7077738486272183 1.8667949376260997
thorax -6.09010678578447 0.43269254654876765 0.9322370230258339
lowerneck -16.266382854261604 -3.4802585718356105 -1.526316323993544
upperneck 21.762667626225333 -4.8010535985911975 0.8892494218612319
head 9.75494364601695 -2.2363140461588435 -0.07710574240700521
lclavicle -2.7003079518082963e-15 -2.151714706248305e-15
lhumerus -26.45525234847877 0.09385904918967158 80.94207058819312
lradius 28.371652543160074
lwrist 10.161170784608077
lhand -28.738563578600072 16.87503905101575
lfingers 7.125020000000001
lthumb -1.9209653293894695 47.37299485527792
rclavicle -2.70030795176628e-15 -2.151714706219146e-15
rhumerus -33.81245872692029 -20.50164047047838 -76.95399519606264
rradius 25.877416071124212
rwrist 4.556534341281841
rhand -18.031195545909547 22.20284421986997
rfingers 7.125020000000001
rthumb 8.047173895508056 -6.711680502106566
104
root 1.1554159261677135 17.968940961882822 42.53175017303325 -3.392943880160915 1.8856568430229579 -2.349624647961134
lfemur -4.881697316019962 -2.954219470197823 -20.23847441367975
ltibia 46.15190520159596
lfoot -16.789411900549727 -2.661303883213144
ltoes -14.436265872118241
rfemur -8.735215274519206 1.063781797346733 25.14743198778224
rtibia 25.77607596705907
rfoot 0.8596427567936171 -8.885325005024466
rtoes 6.150677447934983
lowerback 10.272390153180101 0.06142016875743303 1.224342487482499
upperback -0.2481726879479372 0.3192351834742501 1.7878476621184682
thorax -6.046992130175641 0.24633447260012553 1.3024075166911195
lowerneck -16.274304766712625 -3.475176295105344 -1.54970983575716
upperneck 21.72982217071698 -4.801127728006534 0.9626461796417585
head 9.721375280550554 -2.2351935116485775 -0.037146186951101196
lclavicle -2.700307951803942e-15 -2.1517147062452055e-15
lhumerus -26.406049170601413 0.19089508707483027 81.0599517912695
lradius 28.152814248535137
lwrist 10.474536751556565
lhand -28.69094495221649 15.932628431594981
lfingers 7.125020000000001
lthumb -1.9933021497145145 46.17626141305738
rclavicle -2.7003079517529443e-15 -2.1517147062098767e-15
rhumerus -34.11790888687934 -20.810724750401015 -76.81205193952998
rradius 25.83191484219277
rwrist 4.509697231543465
rhand -17.987972760773527 22.15252184234264
rfingers 7.125020000000001
rthumb 8.129633671554116 -6.720803467014049
105
root 1.185238391038225 17.961304991321686 44.19876929609187 -3.6069483894957637 1.9954920556209215 -1.5832667921864314
lfemur -3.7076021633337435 -3.1087068856282607 -21.078823248770274
ltibia 45.4810633696632
lfoot -16.99777279741516 -2.3533926606793907
ltoes -9.36250728646872
rfemur -10.018621507009303 0.6545837742376297 24.17049652873175
rtibia 27.03148092258435
rfoot 0.7948474652098252 -9.041050173896506
rtoes 6.666198324906997
lowerback 10.320917885300634 -0.1311025045900588 0.508008803713573
upperback -0.21251586799237562 -0.08795642597989367 1.678845586129289
thorax -6.034295492531712 0.041534463904402186 1.7139857516842878
lowerneck -16.317025958738686 -3.469481842361502 -1.5700916687903386
upperneck 21.67716185497001 -4.783272439081 1.0429171217214301
head 9.69555440002829 -2.227762355668254 0.0009417767865799453
lclavicle -2.700307951805822e-15 -2.15171470624627e-15
lhumerus -26.524360527606966 0.27629922029314846 81.12995523683571
lradius 27.776735685370493
lwrist 10.770577916603104
lhand -28.985582670875484 15.933895074117055
lfingers 7.125020000000001
lthumb -2.3198967957622125 46.18879055316494
rclavicle -2.700307951760279e-15 -2.1517147062145815e-15
rhumerus -34.49084825779011 -21.238726151146444 -76.6033209579284
rradius 25.800408868359966
rwrist 4.484010172845258
rhand -17.992078281790693 22.038694408028558
rfingers 7.125020000000001
rthumb 8.117689210086944 -6.863671944222188
